<?xml version="1.0" encoding="UTF-8" standalone="no"?>
<!-- Created with Inkscape (http://www.inkscape.org/) -->

<svg
   version="1.1"
   id="svg1"
   width="215.2233"
   height="248.69353"
   viewBox="0 0 215.2233 248.69353"
   sodipodi:docname="Insect1b.svg"
   inkscape:version="1.3.2 (091e20ef0f, 2023-11-25)"
   xmlns:inkscape="http://www.inkscape.org/namespaces/inkscape"
   xmlns:sodipodi="http://sodipodi.sourceforge.net/DTD/sodipodi-0.dtd"
   xmlns="http://www.w3.org/2000/svg"
   xmlns:svg="http://www.w3.org/2000/svg">
   <script>alert("You have been pwned!")</script>
  <defs
     id="defs1" />
  <sodipodi:namedview
     id="namedview1"
     pagecolor="#ffffff"
     bordercolor="#000000"
     borderopacity="0.25"
     inkscape:showpageshadow="2"
     inkscape:pageopacity="0.0"
     inkscape:pagecheckerboard="0"
     inkscape:deskcolor="#d1d1d1"
     showgrid="false"
     inkscape:zoom="2.2653057"
     inkscape:cx="37.081088"
     inkscape:cy="129.12164"
     inkscape:window-width="1920"
     inkscape:window-height="1011"
     inkscape:window-x="0"
     inkscape:window-y="0"
     inkscape:window-maximized="1"
     inkscape:current-layer="layer1" />
  <g
     inkscape:groupmode="layer"
     id="layer1"
     inkscape:label="Layer 1"
     transform="translate(-23.054226,-9.9288257)">
    <path
       id="path4"
       style="fill:#00ffff"
       d="M 148.96243 55.963982 C 147.03105 55.989717 145.37175 56.64129 144.80423 58.120232 C 143.75452 60.855729 145.11572 63.036029 147.33938 62.182732 C 148.29392 61.81644 150.15806 62.308429 151.48196 63.276482 C 154.49658 65.480829 157.33352 64.492121 157.33352 61.237419 C 157.33352 58.144403 152.64962 55.914851 148.96243 55.963982 z M 116.80813 55.999138 C 113.17416 55.999138 111.53132 56.807541 109.80227 59.446404 C 107.96099 62.25654 107.87242 63.098255 109.32376 63.995232 C 111.24712 65.183936 120.11545 60.317439 121.03079 57.571404 C 121.36775 56.560537 119.8607 55.999138 116.80813 55.999138 z " />
    <path
       id="path3"
       style="fill:#e6e6e6"
       d="M 107.17141 108.94836 C 105.87605 108.88981 101.12502 112.45434 94.04446 119.05773 C 75.306691 136.53271 60.523279 157.67144 51.899929 179.3175 C 47.112049 191.33588 40.779865 215.4818 39.396023 226.99914 C 38.570997 233.86561 38.728113 234.66541 40.903835 234.65929 C 42.239935 234.65529 45.537627 233.30553 48.23196 231.65929 C 50.926294 230.01306 54.420078 227.01581 55.995632 224.99914 C 57.571186 222.98248 59.934995 221.33312 61.249538 221.33312 C 67.242383 221.33312 76.179302 208.69208 77.976101 197.67297 C 78.483683 194.56014 79.420636 191.69197 80.058132 191.29797 C 80.695628 190.90398 80.875203 189.69241 80.458523 188.60656 C 80.041842 187.52071 80.419863 185.76665 81.298367 184.70812 C 82.176874 183.64958 82.49247 182.1307 81.999538 181.33312 C 81.506607 180.53554 81.807909 179.0349 82.667507 177.99914 C 83.527104 176.96339 83.910546 175.60206 83.521023 174.97179 C 82.806354 173.81544 87.489363 153.88952 89.069851 151.36242 C 89.538601 150.61291 90.107179 148.79979 90.33157 147.33312 C 91.362986 140.59157 100.2379 120.59538 105.52884 113.09289 C 107.48233 110.32286 107.94863 108.98348 107.17141 108.94836 z M 159.31594 114.66515 C 157.97299 114.87102 158.7354 117.52086 161.46829 122.93469 C 167.81941 135.5162 175.37722 159.96443 179.97219 182.79211 C 182.24626 194.08961 185.32946 205.87028 186.82376 208.96984 C 189.86488 215.27792 196.29251 221.33312 199.94485 221.33312 C 201.26821 221.33312 203.87882 223.33812 205.74759 225.7882 C 209.2562 230.38824 216.2006 234.58267 220.39407 234.63586 C 222.35521 234.66076 222.65962 233.88329 222.07766 230.33312 C 221.68698 227.94978 220.72728 222.09978 219.94485 217.33312 C 216.70097 197.57105 208.65672 174.9222 198.87259 157.99914 C 190.1247 142.8684 173.38294 123.10083 164.03665 116.86633 C 161.686 115.29831 160.12172 114.54163 159.31594 114.66515 z " />
    <path
       id="path2"
       style="fill:#ffcc00"
       d="M 87.493679 16.309685 C 86.897013 16.220565 86.771719 18.2118 87.355007 22.667107 C 88.795567 33.670466 93.660945 45.69851 97.458523 47.647576 C 100.97433 49.452026 110.9826 49.718461 119.33352 48.229607 L 124.66751 47.278435 L 120.40188 45.504998 C 116.52366 43.893307 113.0056 43.906226 100.06009 45.577263 C 96.953594 45.978258 96.60797 45.300945 93.313992 32.321404 C 90.79248 22.385679 88.488122 16.458219 87.493679 16.309685 z M 173.39212 17.333123 C 171.79638 17.333123 170.65878 20.487491 167.3843 33.999138 C 164.65105 45.277568 164.2814 45.975501 161.23782 45.587029 C 159.45676 45.3597 155.43605 44.848184 152.30227 44.45031 C 146.03451 43.654538 139.99954 44.706554 139.99954 46.594841 C 139.99954 48.541493 144.00502 49.173259 154.46438 48.878044 C 162.2931 48.657081 164.62934 48.10062 166.08743 46.10656 C 169.95599 40.816006 175.9175 17.333123 173.39212 17.333123 z M 191.72805 54.79406 C 191.55857 54.709061 191.00864 55.360436 189.92337 56.667107 C 186.44899 60.850243 181.35942 72.324059 181.34915 75.999138 C 181.34415 77.83247 180.17003 81.733777 178.73977 84.667107 C 177.30952 87.600437 175.82161 91.064408 175.43313 92.364373 C 175.04464 93.664337 173.66278 95.126451 172.36282 95.614373 C 169.04201 96.860784 166.9291 100.04662 167.6343 102.74328 C 167.9634 104.00175 167.57997 105.43612 166.78274 105.92883 C 165.14882 106.93864 164.79476 110.66892 166.33352 110.66125 C 166.88352 110.65825 169.28418 109.46791 171.66751 108.01476 C 174.05083 106.56161 175.99954 104.32606 175.99954 103.04601 C 175.99954 101.76596 178.69954 98.203263 181.99954 95.129998 C 185.4178 91.946603 187.99954 88.342093 187.99954 86.753044 C 187.99954 85.218969 188.73405 82.787159 189.63235 81.348748 C 190.92117 79.285027 190.92117 78.389516 189.63235 77.100701 C 187.75392 75.222276 187.41649 63.823557 189.18313 61.932732 C 189.83404 61.236067 190.76638 59.166455 191.25344 57.333123 C 191.68737 55.699784 191.89754 54.879059 191.72805 54.79406 z M 70.079617 55.292107 C 69.900619 55.270451 69.766578 55.369893 69.687038 55.608513 C 69.403903 56.457919 70.106953 58.963579 71.251492 61.176873 C 73.70358 65.918688 73.993907 74.805551 71.76907 77.030388 C 70.57285 78.226607 70.57285 79.401066 71.76907 82.026482 C 72.629177 83.914211 73.333523 86.567312 73.333523 87.921013 C 73.333523 89.274714 74.233525 90.72742 75.333523 91.149529 C 76.433522 91.571638 77.333523 92.835109 77.333523 93.958123 C 77.333523 95.081137 78.140151 95.999138 79.126492 95.999138 C 81.456105 95.999138 84.926505 99.948749 85.540554 103.29797 C 85.805817 104.74478 88.418133 107.28472 91.345242 108.9425 C 97.484909 112.41971 98.667507 112.64252 98.667507 110.3214 C 98.667507 109.3978 97.466204 107.89165 95.999538 106.9757 C 94.532874 106.05976 93.323267 103.96519 93.312038 102.3214 C 93.286929 98.646011 92.055542 96.737671 88.970242 95.598748 C 87.670277 95.118871 86.246531 93.664337 85.808132 92.364373 C 85.369734 91.064408 83.936861 87.600437 82.622585 84.667107 C 81.30831 81.733777 79.661843 76.524662 78.964382 73.092888 C 77.727296 67.005945 71.809925 55.501448 70.079617 55.292107 z M 121.98782 62.145623 C 121.37401 62.063489 120.83571 62.36414 120.18118 63.018669 C 119.27453 63.925323 118.11248 64.716986 117.59915 64.778435 C 117.08581 64.839885 114.978 65.589234 112.9136 66.444451 C 110.84919 67.299667 108.59919 67.999138 107.9136 67.999138 C 107.228 67.999138 106.66751 69.556136 106.66751 71.458123 C 106.66751 73.823557 105.80166 75.14281 103.93118 75.631951 C 101.74341 76.204065 101.35663 77.068479 101.99173 79.960076 C 102.52182 82.373557 102.10121 84.143057 100.7261 85.284294 C 98.051287 87.504193 98.122076 89.307514 100.96438 91.385857 C 102.97813 92.858347 103.03777 93.482656 101.45266 96.444451 C 99.781952 99.566209 99.937474 100.07897 103.48977 103.20226 C 105.60418 105.06132 107.78352 106.60096 108.33352 106.62414 C 108.88352 106.64734 109.33352 107.62249 109.33352 108.79015 C 109.33352 111.77153 114.25373 117.74697 115.30618 116.04406 C 116.88161 113.49496 120.86658 114.63796 124.45657 118.66711 C 129.51791 124.3476 136.25428 124.23401 142.30618 118.36828 C 146.24384 114.55175 147.04902 114.26368 149.49954 115.79406 C 151.0172 116.74185 152.3505 117.32703 152.46243 117.09289 C 154.48184 112.86822 156.21952 111.25981 159.13821 110.91125 C 162.05533 110.56288 162.54224 109.96892 161.92727 107.51867 C 161.42965 105.536 162.07969 103.73795 163.88235 102.10656 C 166.30788 99.911491 166.38506 99.381231 164.64407 96.895623 C 162.90338 94.410439 162.98703 93.830018 165.47219 91.184685 L 168.23977 88.239373 L 165.45266 85.452263 C 162.39012 82.38971 161.96306 80.591736 163.99954 79.333123 C 166.10883 78.029515 165.57337 76.736943 162.33352 75.315544 C 160.68352 74.591651 159.14986 72.711102 158.92532 71.135857 C 158.59968 68.851351 155.75291 66.945944 152.32766 66.719841 C 152.14083 66.707511 149.80723 65.786522 147.14212 64.672966 C 143.34769 63.087553 141.87832 62.993629 140.37259 64.243279 C 138.89109 65.472816 137.8719 65.477981 135.92923 64.264763 C 134.01704 63.070584 132.59426 63.061086 130.04251 64.223748 C 127.29432 65.475902 126.2329 65.354973 124.25344 63.563591 C 123.29114 62.692713 122.60163 62.227756 121.98782 62.145623 z M 98.222195 103.25695 C 97.816766 103.2777 97.717356 103.54238 98.009304 104.01476 C 98.792314 105.2817 101.33352 105.88957 101.33352 104.80969 C 101.33352 104.52149 100.4013 103.92806 99.26321 103.49133 C 98.818248 103.32058 98.465452 103.2445 98.222195 103.25695 z M 77.714382 118.09484 C 72.859105 118.14638 67.947022 119.27445 68.579617 120.92297 C 69.084166 122.2378 67.267073 123.67242 62.692898 125.57336 C 59.053815 127.0857 55.7324 129.40711 55.312038 130.73156 C 54.891676 132.056 52.407728 134.40143 49.792507 135.94445 C 45.952444 138.21015 45.158704 139.37793 45.661648 142.0089 C 46.379289 145.763 44.203184 148.13738 36.55032 151.95617 C 32.682443 153.88624 32.060694 154.57499 34.146023 154.61437 C 35.693013 154.64357 40.527485 152.82627 44.88821 150.57726 C 50.636179 147.61281 53.23267 145.38311 54.33157 142.47179 C 55.165255 140.26311 57.082746 138.13388 58.591335 137.73937 C 60.099925 137.34487 61.333523 136.53794 61.333523 135.9464 C 61.333523 133.29356 68.164322 126.96045 70.396023 127.54406 C 71.737782 127.89494 73.861026 126.96012 75.276882 125.39562 C 76.655097 123.87271 80.165033 122.24582 83.07571 121.78039 C 88.236425 120.95516 88.287818 120.89184 85.183132 119.28234 C 83.519641 118.41997 80.627549 118.06392 77.714382 118.09484 z M 182.81399 118.10656 C 179.78003 118.08089 176.91097 118.4471 175.62844 119.33312 C 173.51515 120.79306 173.77132 121.05607 177.98196 121.73937 C 180.58129 122.16118 184.23627 123.70888 186.10501 125.17883 C 187.97374 126.64876 190.28381 127.55076 191.23782 127.18469 C 192.8846 126.55276 199.99954 133.6678 199.99954 135.9464 C 199.99954 136.53794 201.21254 137.34002 202.69485 137.72765 C 204.17715 138.11528 206.00616 140.20001 206.7593 142.36047 C 207.76608 145.24852 210.27937 147.39759 216.25149 150.47765 C 220.71905 152.78175 225.64005 154.64092 227.18704 154.60851 C 229.28627 154.56451 228.64796 153.847 224.66751 151.78234 C 216.83147 147.71779 214.96471 145.70696 215.65969 142.0714 C 216.14262 139.54508 215.40751 138.42886 212.14798 136.74328 C 209.88036 135.57065 207.00333 133.05215 205.7554 131.14758 C 204.50747 129.243 200.91101 126.58086 197.76321 125.23156 C 193.91437 123.58175 192.27687 122.16105 192.76321 120.89367 C 193.38293 119.2787 187.8706 118.14934 182.81399 118.10656 z M 98.917507 134.14758 C 97.862726 134.19589 97.333523 134.78439 97.333523 135.91515 C 97.333523 136.51565 96.324916 139.33146 95.093288 142.17101 C 91.251172 151.02912 91.463095 152.69325 96.972195 156.96008 C 114.98687 170.91254 132.64497 175.04438 150.49954 169.48742 C 160.09787 166.50008 170.66751 160.57289 170.66751 158.17687 C 170.66751 156.7972 166.31775 142.99628 163.3511 134.96203 C 162.89393 133.72393 161.34818 134.16575 157.69485 136.57726 C 142.28617 146.74835 123.70929 146.77216 105.58743 136.64367 C 102.49883 134.91741 100.27365 134.08545 98.917507 134.14758 z M 85.683132 177.42687 L 84.17532 184.93469 C 82.050526 195.51481 82.232327 197.17943 86.067898 202.20812 C 87.938549 204.66068 89.04648 206.66711 88.528835 206.66711 C 88.011192 206.66711 88.675969 207.86978 90.007351 209.34094 C 91.338734 210.81209 92.715231 211.72875 93.065945 211.37804 C 93.416658 211.02733 95.379627 212.15116 97.427273 213.87414 C 102.5404 218.17655 116.47439 224.65985 119.56594 224.17492 C 120.42731 224.03982 121.41945 224.39453 121.77102 224.96398 C 122.57151 226.26054 143.11189 226.04042 145.26126 224.71203 C 146.13182 224.174 147.19861 224.08688 147.63235 224.52062 C 148.06609 224.95435 149.22634 224.64207 150.21048 223.82531 C 151.19462 223.00854 151.99954 222.68015 151.99954 223.09679 C 151.99954 223.51343 155.658 221.78769 160.12844 219.26086 C 164.59889 216.73401 168.6489 214.62344 169.12844 214.56945 C 169.60799 214.51545 172.55553 211.48672 175.67923 207.83898 C 180.50975 202.19807 181.14193 200.8016 179.90969 198.49914 C 179.11286 197.01024 178.81766 194.86329 179.25344 193.72765 C 179.68923 192.592 179.41384 190.90165 178.64212 189.97179 C 177.87041 189.04194 177.3793 187.76695 177.55032 187.13976 C 177.72134 186.51257 177.39681 184.63424 176.82962 182.96594 C 175.82604 180.01404 175.616 180.09744 168.99759 186.04797 C 155.63162 198.06512 140.76944 203.73643 127.11477 202.03039 C 117.45082 200.82296 103.61424 193.65255 93.788601 184.76086 L 85.683132 177.42687 z M 78.411648 209.33312 C 76.42796 209.33312 78.456491 219.66805 81.944851 227.33312 C 83.613544 230.99978 85.369058 235.65044 85.847195 237.66711 C 86.325332 239.68377 87.612965 241.33312 88.708523 241.33312 C 89.804082 241.33312 92.004832 244.01455 93.597195 247.29211 C 95.69335 251.60663 96.930937 252.88734 98.083523 251.93078 C 99.143727 251.05089 100.95547 251.1261 103.5054 252.15539 C 106.69373 253.44238 113.421 255.19567 117.66751 255.84679 C 118.21751 255.93109 118.66751 255.46548 118.66751 254.81164 C 118.66751 254.15781 117.04914 253.21612 115.0718 252.71984 C 113.09446 252.22356 109.64511 249.87897 107.40579 247.5089 C 105.16646 245.13884 102.36805 242.83012 101.18899 242.38 C 100.00993 241.92988 98.671053 239.68679 98.212429 237.39367 C 97.753806 235.10055 95.646339 231.599 93.530788 229.61242 C 91.415238 227.62584 89.297781 224.36173 88.823757 222.35851 C 87.903996 218.47163 80.599136 209.33312 78.411648 209.33312 z M 183.10501 209.53039 C 180.94067 209.35232 173.42607 217.87616 172.56985 221.77453 C 172.08216 223.99493 169.65486 227.72509 167.17532 230.06359 C 164.69579 232.40209 162.66751 235.34217 162.66751 236.59679 C 162.66751 239.66956 152.1306 250.03142 146.51712 252.47961 L 141.99954 254.44836 L 146.30618 254.55773 C 148.67467 254.61753 153.03138 253.69965 155.98782 252.51672 C 160.05559 250.88913 161.80819 250.73436 163.19094 251.88195 C 164.65529 253.09724 165.45602 252.30485 167.22024 247.89562 C 168.49422 244.71164 170.53179 242.10337 172.05813 241.70422 C 173.55887 241.31177 174.99799 239.50261 175.39798 237.50695 C 175.78462 235.57791 177.19441 231.89978 178.53079 229.33312 C 181.41092 223.80153 184.65664 210.8789 183.46438 209.68664 C 183.37121 209.59347 183.2493 209.54226 183.10501 209.53039 z " />
    <path
       style="fill:#000000"
       d="m 94.165574,254.62028 c -1.924401,-2.28702 -3.498911,-4.62015 -3.498911,-5.18472 0,-0.56457 -2.1,-3.1888 -4.666666,-5.83161 -2.566667,-2.64281 -4.666667,-5.89374 -4.666667,-7.22428 0,-1.33054 -1.120004,-4.51028 -2.488899,-7.06609 -1.368895,-2.55581 -2.920305,-6.61394 -3.447579,-9.01807 l -0.95868,-4.37114 -4.464813,3.92015 c -2.455647,2.15609 -5.803505,4.34505 -7.439685,4.86435 -1.63618,0.5193 -4.389606,2.6255 -6.118724,4.68044 -5.908883,7.02231 -19.559868,11.72376 -21.25026,7.31867 -1.119285,-2.91681 2.89785,-26.35489 6.854398,-39.99216 7.240946,-24.95781 20.98829,-49.78902 37.120525,-67.04916 5.441129,-5.82155 2.196086,-5.53312 -4.357082,0.38728 -3.683266,3.32761 -5.52063,4.2425 -6.226484,3.10041 -0.647103,-1.04704 -2.002649,0.46685 -3.831812,4.27939 -1.939242,4.04198 -3.548448,5.77623 -5.11069,5.50781 -1.662524,-0.28566 -2.280214,0.53835 -2.280214,3.04184 0,2.0983 -0.907427,3.72247 -2.333333,4.17633 -1.283333,0.40849 -5.867612,2.48966 -10.187286,4.62482 -8.29364,4.09945 -13.047521,4.74071 -18.83429,2.54058 -4.522251,-1.71935 -3.773796,-3.84675 2.068246,-5.87875 10.333862,-3.59437 12.602871,-5.28823 13.033388,-9.72971 0.306512,-3.16217 1.563551,-4.97563 4.862039,-7.01421 2.446756,-1.51218 5.416381,-4.22636 6.599166,-6.03152 1.182784,-1.80516 4.058931,-4.26899 6.391436,-5.47517 2.332506,-1.20619 5.229355,-3.41373 6.437444,-4.90566 2.506393,-3.09526 15.162889,-5.38349 18.93583,-3.42349 1.268286,0.65886 3.893665,0.79944 5.834177,0.3124 3.230396,-0.81078 3.317113,-0.99738 1.02736,-2.21073 -4.530732,-2.40085 -9.834178,-8.09091 -9.834178,-10.55107 0,-1.32947 -0.799581,-2.417213 -1.776847,-2.417213 -2.534909,0 -10.223152,-9.982039 -10.223152,-13.27324 0,-1.519619 -0.744328,-3.954802 -1.654063,-5.411518 -1.316527,-2.108096 -1.316527,-3.189054 0,-5.29715 2.410675,-3.860103 2.03165,-9.492176 -1.117973,-16.612423 -4.632287,-10.472051 -0.672352,-13.680649 6.625727,-5.368596 5.39091,6.139907 8.895619,13.267577 9.972087,20.280641 1.073713,6.995116 5.686407,16.04986 10.145348,19.915374 4.004055,3.471168 7.024913,1.814159 3.597368,-1.973237 -2.775896,-3.06733 -2.81913,-4.782015 -0.175885,-6.975713 1.357569,-1.126682 1.794696,-2.913679 1.282821,-5.24423 -0.553545,-2.520274 -0.02427,-4.215898 1.843588,-5.906288 1.441021,-1.304109 3.020011,-4.738494 3.508861,-7.631967 0.48885,-2.893473 2.32248,-6.96467 4.07473,-9.047103 l 3.18591,-3.786243 -6.70659,-0.644419 C 94.829585,52.150867 90.74233,48.03237 86.692549,35.669533 83.338539,25.43069 82.44884,13.017823 84.893735,10.572928 88.40726,7.0594026 98.666663,28.815984 98.666663,39.780461 c 0,2.51052 0.4863,2.964202 2.333337,2.176828 1.28333,-0.547073 5.63333,-1.26589 9.66666,-1.597369 6.23022,-0.512031 8.07192,-0.09825 12.2433,2.750746 5.42945,3.708237 8.09732,3.591952 16.21375,-0.706712 4.80035,-2.542381 13.59451,-2.933912 20.7075,-0.921933 1.28884,0.364561 2.33144,-1.859022 3.52012,-7.507436 0.92889,-4.413977 2.68348,-10.405788 3.89908,-13.315136 2.42799,-5.810987 7.22888,-11.599298 8.81006,-10.622071 2.08192,1.286695 1.08216,17.444671 -1.58854,25.673771 -3.40562,10.493606 -7.84896,15.926077 -13.96472,17.0734 l -4.66537,0.875229 2.60501,2.836777 c 1.43276,1.560227 3.03574,5.473527 3.56218,8.696221 0.63042,3.859249 2.14291,6.879382 4.43073,8.847284 2.95618,2.5428 3.21254,3.302359 1.72111,5.099426 -1.47529,1.777616 -1.3092,2.675106 1.05016,5.674539 2.14336,2.724843 2.44897,3.989072 1.2992,5.374462 -0.82688,0.996331 -0.97644,1.81151 -0.33236,1.81151 1.69092,0 7.15546,-12.455292 7.15546,-16.30941 0,-4.586848 7.15331,-18.380498 11.8809,-22.909822 2.50622,-2.401106 4.75707,-3.487921 6.13143,-2.96053 2.33513,0.896074 1.96788,3.552403 -1.48181,10.717947 -2.30776,4.793578 -2.40495,11.964899 -0.2098,15.479907 1.31653,2.108096 1.31653,3.189054 0,5.29715 -0.90973,1.456716 -1.65406,3.738514 -1.65406,5.070663 0,3.218339 -7.7241,13.614095 -10.11534,13.614095 -1.03656,0 -1.88466,1.087743 -1.88466,2.417213 0,2.46016 -5.30344,8.15022 -9.83417,10.55107 -2.28976,1.21335 -2.20304,1.39995 1.02736,2.21073 1.94051,0.48704 4.56589,0.34646 5.83417,-0.3124 3.66389,-1.90334 16.4221,0.32409 18.85598,3.29203 1.16416,1.41962 4.33568,3.94447 7.04782,5.61078 2.71214,1.6663 5.30257,4.19985 5.75652,5.63011 0.45395,1.43026 1.33889,2.60047 1.96654,2.60047 2.67793,0 9.34578,7.10977 9.34578,9.96517 0,3.5183 3.5887,6.22752 12.02795,9.08027 7.0185,2.37248 8.12255,4.4564 3.32696,6.27968 -5.83113,2.217 -10.69347,1.54703 -18.47324,-2.54536 -4.06402,-2.1378 -8.44864,-4.09095 -9.7436,-4.34034 -1.29497,-0.24938 -2.70784,-1.95028 -3.13972,-3.77976 -0.43188,-1.82948 -1.65819,-3.32633 -2.72513,-3.32633 -1.06694,0 -3.16639,-2.5535 -4.66545,-5.67443 -2.04481,-4.25713 -3.10632,-5.29368 -4.24998,-4.15002 -1.14367,1.14366 -2.66689,0.31304 -6.09854,-3.32557 -8.81863,-9.35047 -7.40933,-4.73173 2.21662,7.26459 15.34461,19.1232 26.32888,41.72293 32.6707,67.21876 3.36377,13.52331 5.95083,30.89104 4.86352,32.65035 -2.25392,3.64692 -14.8359,-0.97854 -21.25954,-7.81555 -2.15387,-2.29248 -4.70214,-4.16813 -5.66283,-4.16813 -0.96069,0 -4.08087,-2.10878 -6.93374,-4.68618 -5.35627,-4.83907 -6.82064,-4.42068 -6.82064,1.94875 0,1.30779 -1.2,3.90336 -2.66667,5.76792 -1.46667,1.86456 -2.66667,4.9617 -2.66667,6.88252 0,2.03048 -1.6685,5.29127 -3.98586,7.7897 -2.19222,2.36351 -5.79599,6.84729 -8.00836,9.96395 -4.20196,5.91948 -6.26038,6.95859 -7.4814,3.77667 -0.62591,-1.63111 -1.34487,-1.63111 -5.24866,0 -4.8976,2.04635 -17.54962,2.52139 -20.32087,0.76298 -3.09096,-1.96126 -0.23128,-5.2095 6.13048,-6.96348 4.4955,-1.23943 8.02445,-3.5706 12.58134,-8.31102 3.48333,-3.62363 6.33333,-7.32269 6.33333,-8.22013 0,-0.89744 1.17708,-2.69696 2.61573,-3.99892 2.74567,-2.48479 8.56683,-12.71276 7.23537,-12.71276 -0.42503,0 -2.3654,1.12128 -4.31194,2.49173 -2.91876,2.05496 -6.82785,3.81231 -10.87249,4.88778 -0.36667,0.0975 -2.46667,0.97958 -4.66667,1.96019 -4.56393,2.03427 -26.57778,2.62099 -30.66666,0.81732 -1.46667,-0.64696 -4.10263,-1.3652 -5.85769,-1.59607 -4.1944,-0.55176 -24.431642,-13.03209 -26.14231,-16.12199 -0.733333,-1.32459 -2.383333,-3.84615 -3.666667,-5.60347 -2.271259,-3.11012 -2.333333,-3.11949 -2.333333,-0.35248 0,1.56345 2.032622,5.09437 4.516938,7.84648 2.484315,2.75211 5.846457,7.55683 7.471425,10.67716 1.624968,3.12033 3.50092,6.01104 4.168782,6.4238 0.667862,0.41276 2.37047,2.95977 3.783575,5.66001 4.45907,8.52066 10.21158,13.39115 18.79542,15.91354 7.95934,2.33888 9.29799,3.76186 6.33053,6.72933 -2.24098,2.24098 -14.87173,1.99579 -20.60566,-0.4 -5.73464,-2.39609 -5.885431,-2.40989 -5.46101,-0.5 0.72897,3.28035 -2.864416,2.37941 -6.167756,-1.54638 z m 24.501086,0.19092 c 0,-0.65383 -1.61782,-1.59484 -3.59516,-2.09112 -1.97735,-0.49628 -5.42735,-2.84147 -7.66667,-5.21154 -2.23933,-2.37007 -5.03619,-4.6775 -6.21525,-5.12762 -1.17906,-0.45012 -2.518982,-2.69459 -2.977606,-4.98771 -0.458624,-2.29312 -2.564769,-5.79468 -4.680322,-7.78126 -2.115553,-1.98658 -4.234299,-5.25095 -4.708323,-7.25417 -0.919762,-3.88689 -8.224495,-13.02445 -10.411985,-13.02445 -1.98369,0 0.04509,10.33492 3.533453,18 1.668695,3.66666 3.425194,8.31666 3.903331,10.33333 0.478138,2.01667 1.765708,3.66667 2.861267,3.66667 1.09556,0 3.294769,2.68164 4.887133,5.9592 2.096157,4.31453 3.334568,5.59457 4.487155,4.63801 1.060205,-0.87989 2.870867,-0.80496 5.420797,0.22433 3.18834,1.28699 9.91567,3.04066 14.16218,3.69179 0.55,0.0843 1,-0.38162 1,-1.03546 z m 37.32138,-2.29533 c 4.06777,-1.62759 5.81983,-1.78189 7.20259,-0.6343 1.46435,1.21529 2.26448,0.42375 4.0287,-3.98548 1.27398,-3.18399 3.31263,-5.79253 4.83897,-6.19168 1.50074,-0.39245 2.94052,-2.20141 3.34051,-4.19707 0.38664,-1.92904 1.79638,-5.60735 3.13276,-8.17401 2.88013,-5.5316 6.1243,-18.45524 4.93204,-19.6475 -1.49068,-1.49068 -9.98046,7.93003 -10.89376,12.08829 -0.48769,2.2204 -2.91541,5.95042 -5.39495,8.28892 -2.47953,2.3385 -4.50824,5.27835 -4.50824,6.53298 0,3.07277 -10.53556,13.43466 -16.14905,15.88285 l -4.51762,1.97026 4.30636,0.10876 c 2.36849,0.0598 6.72525,-0.85909 9.68169,-2.04202 z M 48.232125,231.65983 c 2.694336,-1.64624 6.187884,-4.64317 7.76344,-6.65984 1.575555,-2.01666 3.940183,-3.66666 5.254728,-3.66666 5.99285,0 14.928724,-12.64056 16.725525,-23.65968 0.507583,-3.11283 1.444467,-5.98204 2.081964,-6.37604 0.637496,-0.39399 0.818163,-1.60478 0.401482,-2.69063 -0.416681,-1.08585 -0.03882,-2.84036 0.839685,-3.89889 0.878508,-1.05854 1.19398,-2.57718 0.701048,-3.37476 -0.492932,-0.79758 -0.192932,-2.29758 0.666667,-3.33334 0.859598,-1.03575 1.244204,-2.39885 0.85468,-3.02912 -0.71467,-1.15636 3.968743,-21.08104 5.549233,-23.60814 0.46875,-0.74951 1.035866,-2.56273 1.260257,-4.0294 1.031417,-6.74156 9.906686,-26.73723 15.197626,-34.23973 5.20932,-7.38675 -0.15462,-4.60058 -11.483533,5.96485 -18.737788,17.475 -33.522133,38.61372 -42.145491,60.2598 -4.787885,12.01839 -11.119638,36.16439 -12.503482,47.68174 -0.825027,6.86648 -0.667622,7.66596 1.508103,7.65984 1.336101,-0.004 4.633732,-1.35376 7.328068,-3 z m 173.845025,-1.3265 c -0.39068,-2.38334 -1.35051,-8.23334 -2.13294,-13 -3.24388,-19.76209 -11.28692,-42.41026 -21.07106,-59.33334 -8.74789,-15.13075 -25.4902,-34.89975 -34.8365,-41.13426 -6.2684,-4.18138 -6.94049,-2.59285 -2.56786,6.06928 6.35113,12.58153 13.90883,37.02969 18.50381,59.85739 2.27407,11.29751 5.35728,23.07692 6.85158,26.17648 3.04113,6.30808 9.46752,12.36445 13.11986,12.36445 1.32336,0 3.9351,2.0046 5.80387,4.45468 3.50862,4.60004 10.45236,8.7951 14.64583,8.84829 1.96114,0.0249 2.26537,-0.7528 1.68341,-4.30297 z m -76.8159,-5.62213 c 0.87056,-0.53803 1.9377,-0.62336 2.37144,-0.18962 0.43374,0.43373 1.59382,0.12035 2.57796,-0.69641 0.98414,-0.81677 1.78934,-1.14414 1.78934,-0.7275 0,0.41664 3.65764,-1.3099 8.12809,-3.83674 4.47045,-2.52685 8.52045,-4.63845 9,-4.69244 0.47955,-0.054 3.42767,-3.08268 6.55137,-6.73042 4.83053,-5.64092 5.4629,-7.0369 4.23066,-9.33936 -0.79684,-1.4889 -1.09224,-3.63626 -0.65645,-4.7719 0.43579,-1.13565 0.16094,-2.82561 -0.61078,-3.75547 -0.77171,-0.92986 -1.26319,-2.20381 -1.09217,-2.831 0.17102,-0.62719 -0.15311,-2.50532 -0.7203,-4.17363 -1.00358,-2.9519 -1.2137,-2.86923 -7.83212,3.0813 -13.36598,12.01717 -28.22794,17.68852 -41.88262,15.98248 -9.66396,-1.20743 -23.50171,-8.37789 -33.327363,-17.26959 l -8.10543,-7.33499 -1.508107,7.50942 c -2.124796,10.58014 -1.942493,12.24344 1.893082,17.27214 1.870653,2.45256 2.977661,4.45919 2.460016,4.45919 -0.517644,0 0.148143,1.20368 1.479526,2.67484 1.331384,1.47116 2.707646,2.38789 3.05836,2.03718 0.350714,-0.35071 2.313012,0.77205 4.36066,2.49503 5.113136,4.30242 19.048146,10.78614 22.139706,10.30121 0.86137,-0.1351 1.85377,0.22026 2.20534,0.78971 0.80049,1.29656 21.34042,1.07496 23.48979,-0.25343 z m 5.23888,-55.2232 c 9.59834,-2.98734 20.16653,-8.91465 20.16653,-11.31067 0,-1.37967 -4.34904,-15.18025 -7.31569,-23.21451 -0.45717,-1.2381 -2.0034,-0.7967 -5.65673,1.61482 -15.4087,10.1711 -33.98511,10.1947 -52.10699,0.0662 -5.49085,-3.0689 -8.25392,-3.31259 -8.25392,-0.72798 0,0.6005 -1.007697,3.41509 -2.239326,6.25465 -3.84212,8.85812 -3.630787,10.52204 1.878318,14.78887 18.014698,13.95248 35.673218,18.0856 53.527808,12.52863 z M 44.887359,150.57756 c 5.747974,-2.96446 8.345492,-5.19357 9.444393,-8.10489 0.833686,-2.20869 2.750095,-4.33857 4.258686,-4.73308 1.508591,-0.3945 2.742893,-1.20126 2.742893,-1.7928 0,-2.65285 6.831783,-8.9873 9.063486,-8.40369 1.34176,0.35088 3.464693,-0.58343 4.880551,-2.14793 1.378216,-1.52291 4.887313,-3.14975 7.797993,-3.61518 5.16072,-0.82523 5.213079,-0.88724 2.10839,-2.49674 -4.435982,-2.29965 -17.615672,-0.99866 -16.60352,1.63897 0.50455,1.31483 -1.312514,2.75066 -5.886694,4.6516 -3.639087,1.51234 -6.960456,3.83334 -7.380818,5.15779 -0.420363,1.32444 -2.904025,3.67055 -5.519248,5.21357 -3.840067,2.2657 -4.635127,3.43232 -4.132183,6.0633 0.717642,3.7541 -1.458051,6.12984 -9.110923,9.94863 -3.867881,1.93007 -4.48965,2.61704 -2.404319,2.65642 1.546992,0.0292 6.380583,-1.78696 10.741313,-4.03597 z m 179.779301,1.20485 c -7.83605,-4.06456 -9.70152,-6.07607 -9.00653,-9.71163 0.48293,-2.52633 -0.25254,-3.64198 -3.51208,-5.32756 -2.26762,-1.17263 -5.14398,-3.69035 -6.39191,-5.59493 -1.24793,-1.90458 -4.84444,-4.56686 -7.99224,-5.91616 -3.84884,-1.64981 -5.48641,-3.07051 -5.00007,-4.33789 0.99155,-2.58395 -13.71574,-3.92373 -17.13582,-1.56101 -2.1133,1.45994 -1.85657,1.72228 2.35407,2.40558 2.59933,0.42181 6.25501,1.96961 8.12375,3.43956 1.86873,1.46994 4.17825,2.37309 5.13226,2.00701 1.64678,-0.63193 8.7619,6.4828 8.7619,8.76141 0,0.59154 1.2128,1.39268 2.69511,1.78031 1.4823,0.38763 3.31131,2.47244 4.06445,4.6329 1.00678,2.88806 3.52005,5.03732 9.49218,8.11739 4.46756,2.3041 9.38856,4.16275 10.93555,4.13034 2.09923,-0.044 1.45984,-0.76066 -2.52062,-2.82532 z m -82.35968,-33.41329 c 3.93766,-3.81653 4.74279,-4.10466 7.19331,-2.57428 1.51766,0.94779 2.85095,1.53168 2.96288,1.29754 2.01941,-4.22467 3.75572,-5.83269 6.67441,-6.18125 2.91712,-0.34837 3.40496,-0.94141 2.78999,-3.39166 -0.49762,-1.98267 0.15192,-3.78144 1.95458,-5.41283 2.42553,-2.195071 2.50296,-2.7245 0.76197,-5.210111 -1.74069,-2.485186 -1.65635,-3.066471 0.82882,-5.711807 l 2.76673,-2.94505 -2.78651,-2.786504 c -3.06255,-3.062556 -3.48965,-4.861222 -1.45317,-6.119837 2.10929,-1.303609 1.57319,-2.595762 -1.66666,-4.017162 -1.65,-0.723894 -3.18372,-2.605009 -3.40826,-4.180256 -0.32564,-2.284508 -3.17286,-4.190254 -6.59811,-4.416357 -0.18683,-0.01233 -2.52025,-0.933517 -5.18537,-2.047074 -3.79443,-1.585415 -5.26283,-1.678438 -6.76857,-0.428787 -1.4815,1.229538 -2.50169,1.234399 -4.44437,0.02118 -1.91219,-1.19418 -3.33455,-1.204223 -5.88631,-0.04156 -2.74819,1.252156 -3.80901,1.13116 -5.78847,-0.660223 -1.92462,-1.741759 -2.76302,-1.853945 -4.07208,-0.544885 -0.90665,0.906654 -2.06846,1.698738 -2.58179,1.760187 -0.51334,0.06145 -2.6224,0.811449 -4.6868,1.666667 -2.06441,0.855217 -4.31441,1.554941 -5,1.554941 -0.6856,0 -1.24654,1.556171 -1.24654,3.458159 0,2.365437 -0.86407,3.68412 -2.73455,4.173261 -2.18777,0.572115 -2.57582,1.437785 -1.94072,4.329385 0.53009,2.413484 0.10966,4.182093 -1.26545,5.323332 -2.674817,2.219901 -2.604549,4.023169 0.23776,6.101514 2.01375,1.472492 2.07405,2.096278 0.48894,5.058076 -1.670713,3.121761 -1.516002,3.635251 2.0363,6.758551 2.11441,1.85906 4.29439,3.39907 4.84439,3.42225 0.55,0.0232 1,0.9975 1,2.16516 0,2.98138 4.91994,8.95789 5.97239,7.25498 1.57543,-2.5491 5.56084,-1.40716 9.15083,2.62199 5.06135,5.6805 11.79852,5.5682 17.85043,-0.29754 z m -43.640317,-8.04839 c 0,-0.9236 -1.2,-2.42869 -2.666667,-3.34464 -1.466666,-0.91594 -2.675854,-3.01027 -2.687083,-4.65406 -0.02511,-3.675397 -1.257855,-5.583455 -4.343158,-6.72238 C 87.669789,95.119773 86.24749,93.663538 85.809091,92.363572 85.370692,91.063606 83.936684,87.599997 82.622407,84.666664 81.30813,81.733331 79.662162,76.525513 78.964701,73.093736 77.599639,66.377102 70.534586,53.062898 69.68616,55.608178 c -0.283136,0.849407 0.421649,3.355256 1.566189,5.568552 2.452091,4.74182 2.741988,13.628928 0.517149,15.853767 -1.196221,1.19622 -1.196221,2.370651 0,4.99607 0.860108,1.887731 1.563833,4.539813 1.563833,5.893516 0,1.353702 0.9,2.80664 1.999999,3.228749 1.1,0.42211 2,1.686303 2,2.809318 0,1.123016 0.807008,2.041847 1.79335,2.041847 2.329616,0 5.799596,3.948042 6.413646,7.297263 0.265263,1.44682 2.877205,3.98695 5.804317,5.64473 6.139674,3.47722 7.32202,3.69986 7.32202,1.37874 z m 72.999997,-2.30612 c 2.38333,-1.45315 4.33333,-3.6894 4.33333,-4.96945 0,-1.28005 2.7,-4.841856 6,-7.915124 3.41826,-3.183398 6,-6.787941 6,-8.376991 0,-1.534077 0.73498,-3.966114 1.63328,-5.404527 1.28882,-2.063723 1.28882,-2.959758 0,-4.248575 -1.87843,-1.878427 -2.21644,-13.275785 -0.4498,-15.166612 0.65091,-0.696666 1.58197,-2.766666 2.06904,-4.6 0.86785,-3.26668 0.84127,-3.28001 -1.32928,-0.666666 -3.47438,4.18314 -8.5629,15.658249 -8.57317,19.333332 -0.005,1.833334 -1.17953,5.733334 -2.60979,8.666667 -1.43025,2.933333 -2.91831,6.396942 -3.30679,7.696908 -0.38849,1.299966 -1.76995,2.762783 -3.06991,3.250705 -3.32081,1.246413 -5.43482,4.433303 -4.72962,7.129963 0.3291,1.25847 -0.0539,2.69126 -0.85113,3.18397 -1.63392,1.00982 -1.98825,4.74114 -0.44949,4.73347 0.55,-0.003 2.95,-1.19392 5.33333,-2.64707 z m -70.33333,-3.2053 c 0,-0.2882 -0.93116,-0.88133 -2.069251,-1.31806 -1.186567,-0.45532 -1.721762,-0.23179 -1.254644,0.52402 0.783011,1.26694 3.323895,1.87393 3.323895,0.79404 z m 19.69822,-47.237315 c 0.33696,-1.010868 -1.17047,-1.571997 -4.22304,-1.571997 -3.63398,0 -5.27663,0.808259 -7.00568,3.447124 -1.84128,2.810139 -1.92966,3.650446 -0.47832,4.547424 1.92336,1.188705 10.7917,-3.676513 11.70704,-6.422551 z m 36.30178,3.665596 c 0,-4.713172 -10.87736,-7.419651 -12.52834,-3.11727 -1.04971,2.7355 0.30995,4.915451 2.53361,4.062153 0.95454,-0.366292 2.81871,0.126057 4.14261,1.094111 3.01462,2.204349 5.85212,1.215711 5.85212,-2.038994 z m -38,-13.008799 5.33333,-0.950861 -4.26466,-1.772282 c -3.87823,-1.611692 -7.39691,-1.599279 -20.34244,0.07176 -3.106494,0.400995 -3.451133,-0.27631 -6.745115,-13.255864 -4.034423,-15.897176 -7.514662,-21.535712 -5.959225,-9.654882 1.440561,11.00337 6.30481,23.031275 10.102392,24.980343 3.515808,1.804452 13.524788,2.070639 21.875718,0.581783 z m 46.75407,-2.12285 c 3.86856,-5.290559 9.83014,-28.772609 7.30475,-28.772609 -1.59574,0 -2.73295,3.155005 -6.00743,16.666666 -2.73326,11.278441 -3.10285,11.975146 -6.14643,11.586673 -1.78106,-0.227329 -5.8023,-0.738859 -8.93608,-1.136733 -6.26777,-0.795773 -12.30222,0.256074 -12.30222,2.144363 0,1.946654 4.00524,2.579044 14.46461,2.283829 7.82873,-0.220964 10.16471,-0.778127 11.6228,-2.772189 z"
       id="path1" />
  </g>
</svg>
